<?xml version="1.0" encoding="UTF-8" standalone="no"?>
<svg xmlns="http://www.w3.org/2000/svg" width="1429" height="2500">
  <g id="KeralaDistricts">
    <path
       id="Thiruvanathapuram"
       style="fill:#fad0cc;fill-opacity:1;stroke:#000000;stroke-width:1px;"
       d="m 1025.9553,2208.1036 0,10.3632 -4.0301,5.1816 5.7573,13.8176 68.5122,80.6025 20.7263,26.4837 c 0,0 5.1816,9.2117 7.4846,10.9389 2.3029,1.7272 7.4845,3.4544 7.4845,3.4544 l 10.3632,19.5749 9.2117,8.636 5.7573,10.9389 13.2419,11.5147 9.7874,8.636 3.4544,8.636 5.1816,7.4845 10.3632,8.636 10.3632,7.4845 10.9389,10.3632 10.9389,8.636 9.7875,8.636 8.6359,4.6058 2.8787,5.1816 11.5147,0 6.333,-10.9389 0.5757,-5.7573 15.5448,0 6.9088,-1.1515 0.5757,-18.9992 10.3632,-17.2719 7.4845,-15.5448 2.8787,-8.0603 5.7573,-5.1816 8.636,-5.1816 1.1515,-5.7573 -9.2117,-2.8786 c 0,0 -0.5758,-1.7272 -0.5758,-5.1816 0,-3.4544 -3.4544,-8.0603 -3.4544,-8.0603 0,0 -4.0301,-3.4544 -2.8786,-5.7573 1.1514,-2.3029 6.9088,-2.8787 6.9088,-2.8787 l 8.0602,3.4544 8.0603,0 2.8786,-5.7573 7.4846,-1.7272 5.7573,-5.7573 c 0,0 0.5757,-11.5147 0,-13.8176 -0.5757,-2.3029 -4.0301,-13.2419 -4.0301,-13.2419 l 2.3029,-8.6359 -3.4544,-3.4544 -4.0301,1.1514 -10.9389,-14.3933 -20.7264,-29.3623 c 0,0 -9.7875,-20.1507 -10.3632,-22.4536 -0.5757,-2.3029 -3.4544,-12.6661 -3.4544,-12.6661 l 15.5448,-8.636 8.636,-10.3632 -4.0302,-14.3933 -28.2109,-16.1205 -69.0879,-20.7264 c 0,0 -26.4836,32.8168 -41.4527,30.5138 -14.969,-2.3029 -50.0887,-20.7263 -60.4519,-27.0594 -10.3632,-6.3331 -21.8778,-13.8176 -37.4226,-12.6661 -15.5448,1.1515 -37.4226,12.0904 -38.5741,18.9992 -1.1515,6.9088 -13.8176,20.7263 -13.8176,20.7263 z" />
    <path
       id="Kollam"
       style="fill:#c1e0b2;fill-opacity:1;stroke:#000000;stroke-width:1px;"
       d="m 929.80797,2016.3847 -1.15146,10.9389 -6.90879,0 -5.18159,2.303 13.24184,19.5749 5.1816,13.8175 2.87866,7.4846 4.60586,0 5.75732,5.7573 -1.15146,5.7573 -6.90879,-2.8787 -4.60586,-3.4543 -4.60586,-10.939 -3.4544,-8.0602 -4.03012,-9.7875 -5.1816,-9.2117 -3.45439,-4.0301 -2.30293,-6.3331 -3.4544,-5.1816 -5.75732,1.1515 9.21172,12.6661 4.03013,6.3331 -1.15147,8.636 7.48452,6.9087 6.33306,14.9691 5.18159,15.5448 1.7272,17.8477 4.60586,26.4837 5.18159,5.7573 2.87867,3.4544 4.60586,-3.4544 -3.4544,-10.3632 5.18159,-17.8477 5.1816,-3.4544 1.72719,1.1515 -1.72719,4.0301 -4.60586,9.2117 1.15146,9.2117 5.75733,-1.1514 2.30293,-9.2117 2.30293,-8.0603 6.33305,-5.7573 4.03013,-6.9088 0.57573,-9.7875 4.60586,-2.3029 1.7272,4.0301 2.30293,2.8787 2.87866,3.4544 -6.90879,5.1816 -2.87866,6.333 6.90879,3.4544 8.06026,-6.9088 4.60586,-5.7573 8.63599,-0.5757 -1.1515,4.6058 -5.1816,4.0302 2.8787,5.1816 7.4845,1.1514 0.5758,6.3331 -5.7574,-4.0301 -8.63596,-2.303 -1.15146,4.6059 1.72719,7.4845 -10.93891,-5.1816 -9.78746,-0.5757 -8.63598,7.4845 2.30293,4.6059 7.48452,1.7272 -0.57573,3.4544 -10.93892,1.7272 -4.03013,4.0301 5.75733,1.7272 3.45439,-2.3029 3.4544,2.8786 5.75732,-4.0301 8.63599,-1.1515 -2.30293,5.7573 -9.78745,3.4544 -8.63599,1.7272 -6.33306,-4.6058 -4.60586,-4.6059 -3.45439,2.8787 0.57573,7.4845 10.36318,14.3933 12.66612,7.4845 11.51465,8.0603 1.15146,8.636 6.90879,5.7573 4.60583,-2.8787 -2.8786,-6.333 12.0904,1.7272 4.6058,-8.0603 2.3029,1.1515 -1.1514,5.7573 4.6058,5.1816 -7.4845,-0.5757 -1.7272,3.4544 -5.1816,0 -4.0301,-1.1515 0.5757,9.2117 5.7574,5.7574 0.5757,4.0301 5.1816,4.6058 3.4544,-2.8786 4.6058,-0.5758 5.1816,5.7574 6.9088,-5.7574 c 0,0 2.3029,-8.0602 4.6059,-9.2117 2.3029,-1.1514 13.2418,-2.8786 16.1205,-2.8786 2.8787,0 11.5146,2.8786 13.8176,2.8786 2.3029,0 6.333,-3.4544 6.333,-3.4544 l 4.6059,0 0.5757,-6.9088 -5.7573,-8.6359 -3.4544,-5.7574 6.9088,2.303 c 0,0 4.0301,4.0301 6.333,4.0301 2.303,0 4.6059,3.4544 8.636,2.8787 4.0302,-0.5758 10.3632,-2.303 10.3632,-2.303 0,0 3.4544,1.1515 6.9088,5.1816 3.4544,4.0301 2.8787,6.3331 6.9088,8.0603 4.0301,1.7272 6.9088,3.4544 11.5146,2.8786 4.6059,-0.5757 11.5147,-2.8786 15.5448,-2.3029 4.0302,0.5757 5.7573,1.7272 6.3331,6.9088 0.5757,5.1816 -1.7272,10.9389 0,13.8176 1.7272,2.8786 5.7573,5.1816 9.7874,4.0301 4.0302,-1.1515 8.0603,-1.1515 11.5147,-3.4544 3.4544,-2.3029 10.9389,-5.1816 15.5448,-5.1816 4.6058,0 6.333,2.8787 11.5146,1.1515 5.1816,-1.7272 10.9389,-6.9088 12.6661,-10.3632 1.7272,-3.4544 -0.5757,-13.2419 0,-15.5448 0.5758,-2.3029 5.1816,-5.7573 8.0603,-8.0602 2.8786,-2.303 9.2117,-5.1816 13.8176,-4.0302 4.6058,1.1515 5.7573,2.8787 10.9389,5.1816 5.1816,2.303 6.9088,3.4544 12.6661,6.3331 5.7573,2.8786 8.0602,2.8786 12.6661,6.333 4.6059,3.4544 8.636,8.636 13.8176,9.7875 5.1816,1.1515 10.3632,6.333 16.6962,6.9088 6.3331,0.5757 12.6661,6.333 15.5448,4.0301 2.8787,-2.3029 4.6059,0.5757 4.6059,0.5757 0,0 2.8786,-7.4845 4.0301,-10.3631 1.1515,-2.8787 7.4845,-13.2419 7.4845,-13.2419 l 7.4845,-9.7874 0,-12.6662 -4.0301,-10.3631 -18.9992,-26.4837 c 0,0 -16.1205,-23.0293 -18.4234,-25.3323 -2.3029,-2.3029 -9.7875,-12.6661 -9.7875,-12.6661 0,0 -4.6058,-13.2418 -4.6058,-15.5448 0,-2.3029 2.8786,-7.4845 2.8786,-7.4845 0,0 20.1507,-6.9088 22.4536,-8.636 2.3029,-1.7272 10.9389,-13.2418 10.9389,-13.2418 0,0 10.939,-17.272 11.5147,-19.5749 0.5757,-2.303 4.6058,-12.0904 4.6058,-12.0904 0,0 -17.2719,-6.3331 -38.574,-2.8787 -21.3021,3.4544 -71.9666,1.1515 -90.9658,-4.6058 -18.9991,-5.7574 -35.1196,3.4544 -77.1481,-1.7272 -42.0285,-5.1816 -71.3908,-1.7272 -89.2386,-2.8787 -17.8477,-1.1515 -27.6351,-9.2117 -55.27028,-1.7272 -27.63516,7.4845 -57.57325,6.9088 -57.57325,6.9088 z" />
    <path
       id="Pathanamthitta"
       style="fill:#fdf9bb;fill-opacity:1;stroke:#000000;stroke-width:1px;"
       d="m 1338.0023,2026.1722 -13.8176,2.8786 -12.6661,3.4544 -17.272,3.4544 -18.9991,0.5757 -8.636,-1.1514 c 0,0 -1.7272,2.8786 -4.6059,2.8786 -2.8786,0 -13.8176,-0.5757 -13.8176,-0.5757 0,0 -8.0602,-1.7272 -10.3631,-1.7272 -2.303,0 -12.6662,-0.5757 -12.6662,-0.5757 l -9.7874,-2.303 -10.3632,-7.4845 c 0,0 -5.1816,-2.3029 -7.4845,-2.3029 -2.3029,0 -9.7875,5.1816 -9.7875,5.1816 0,0 -12.6661,-4.0301 -15.5447,-5.1816 -2.8787,-1.1515 -9.7875,-2.8787 -9.7875,-2.8787 l -11.5146,3.4544 c 0,0 -12.0904,-3.4544 -16.1206,-5.1816 -4.0301,-1.7272 -5.7573,-1.7272 -5.7573,-1.7272 0,0 -9.2117,5.7574 -14.3933,6.9088 -5.1816,1.1515 -4.6059,5.7574 -11.5146,4.6059 -6.9088,-1.1515 -20.1507,-3.4544 -25.908,-4.0301 -5.7573,-0.5758 -6.9088,0 -10.3632,0.5757 -3.4544,0.5757 -9.7874,0.5757 -12.0904,-0.5757 -2.3029,-1.1515 -5.1816,-2.8787 -8.0602,-4.0302 -2.8787,-1.1514 -7.4846,-4.6058 -10.3632,-5.1816 -2.8787,-0.5757 -8.0603,1.1515 -10.3632,-1.1514 -2.3029,-2.303 -15.5448,-12.6661 -15.5448,-12.6661 0,0 8.0603,-29.3624 -10.3632,-44.3314 -18.4234,-14.9691 -20.1506,-13.2419 -37.42257,-36.8469 -17.27198,-23.6051 -18.42344,-40.3013 -13.81758,-44.3314 4.60586,-4.0301 17.8477,-2.8787 22.45356,-16.1205 4.60586,-13.2419 16.69625,-33.3925 24.7565,-32.2411 8.06029,1.1515 38.57409,3.4544 52.39169,5.1816 13.8175,1.7272 33.3925,-4.6058 36.8468,1.1515 3.4544,5.7573 11.5147,10.9389 40.8771,13.2419 29.3623,2.3029 55.2703,18.9991 78.2996,7.4845 23.0293,-11.5147 40.877,-21.3021 69.6636,-20.1507 28.7866,1.1515 43.7557,2.8787 62.1791,-0.5757 18.4235,-3.4544 52.9674,8.0603 52.9674,10.9389 0,2.8787 -0.5757,12.6661 -0.5757,12.6661 l -2.8787,9.2118 -4.0301,24.1807 -3.4544,9.2117 -10.3632,11.5147 -9.2117,16.1205 -2.3029,23.605 c 0,0 1.1514,6.9088 0,9.7875 -1.1515,2.8787 -6.3331,13.8176 -7.4846,17.272 -1.1514,3.4544 -2.8786,11.5146 -4.0301,14.969 -1.1515,3.4544 -1.1515,14.3933 -1.1515,16.6962 0,2.303 -5.7573,16.1206 -5.7573,16.1206 z" />
    <path
       id="Alapuzha"
       style="fill:#ebc5dd;fill-opacity:1;stroke:#000000;stroke-width:1px;"
       d="m 963.20046,1860.3612 0,15.5448 -2.87866,3.4544 -3.4544,4.6058 -2.87866,2.8787 2.87866,9.7874 9.21172,10.939 6.33306,4.0301 4.60586,5.1816 5.18159,0.5757 7.48452,-1.1514 5.75733,1.1514 8.06022,3.4544 7.4846,1.7272 8.6359,-0.5757 8.0603,-2.303 4.6059,1.1515 0,3.4544 -0.5758,2.8787 1.1515,5.1816 -1.1515,7.4845 -5.7573,8.0602 -5.7573,5.7574 -2.303,5.7573 0,7.4845 2.8787,6.9088 4.0301,6.9088 1.1515,6.9088 2.3029,6.9088 2.303,8.0602 -4.6059,8.636 -10.3632,2.8787 -4.0301,2.3029 -4.6059,6.9088 -9.21169,2.3029 -9.21172,0.5758 -8.63599,6.333 -13.81758,4.6059 -8.63599,-3.4544 -5.75732,-8.636 -7.48452,-2.8787 -9.78746,1.1515 -6.90879,2.8787 -8.63598,-2.8787 -15.54478,-13.2419 3.45439,-4.0301 -4.60586,-11.5146 -2.30293,-6.9088 0,-9.7875 0.57574,-6.9088 -3.4544,-4.6058 -4.03013,-9.2117 -6.33305,-3.4544 -4.60586,6.333 5.18159,10.3632 5.18159,8.636 4.03013,10.3632 4.03013,10.9389 -2.87867,4.6059 -10.36318,-10.3632 -3.45439,-14.3933 -4.60586,-10.939 -6.33306,-12.6661 -15.54478,-29.3623 -13.81758,-33.9682 -13.24185,-47.7858 -6.33305,-13.2419 -1.15147,-11.5146 -8.63599,-54.6946 0,-20.7264 -2.30293,-10.3632 -2.30293,-14.969 -8.06025,-51.2402 -1.7272,-9.7875 3.4544,-3.4544 2.87866,-2.8786 -4.60586,-4.0302 1.7272,-4.0301 4.60586,-1.1514 1.72719,-6.3331 3.4544,-1.1515 0.57573,-4.6058 0,-6.3331 2.87866,-3.4544 3.4544,3.4544 0,5.1816 0,5.7573 5.75732,10.9389 0,5.1816 0.57574,8.636 3.45439,10.9389 5.18159,18.9992 1.15147,11.5147 0,6.9088 -3.4544,5.1815 8.06026,-1.7271 4.03013,-5.7574 2.87866,3.4544 -0.57573,7.4845 5.75732,6.3331 9.21172,4.6059 c 0,0 5.18159,4.6058 2.30293,6.9088 -2.87866,2.3029 -5.18159,5.7573 -5.18159,5.7573 0,0 2.30293,10.9389 0.57573,14.969 -1.7272,4.0301 -5.75732,12.0904 -5.75732,12.0904 0,0 -4.03013,6.3331 -4.60586,9.2117 -0.57574,2.8787 -4.60586,18.4235 -5.1816,21.3021 -0.57573,2.8787 6.33306,13.2419 6.33306,13.2419 l 16.12051,8.0602 2.30293,1.1515 4.60586,-0.5757 c 0,0 -0.57573,-2.303 1.7272,-3.4544 2.30293,-1.1515 2.87866,-3.4544 2.87866,-3.4544 0,0 6.33306,9.2117 8.63599,10.9389 2.30293,1.7272 4.60586,0 4.60586,0 l 2.30293,-6.3331 10.93891,2.8787 16.12051,5.1816 z" />
    <path
       id="Kottayam"
       style="fill:#ebc5dd;fill-opacity:1;stroke:#000000;stroke-width:1px;"
       d="m 825.60039,1626.0381 -0.57573,8.636 4.03013,8.0602 0,7.4845 1.15146,8.0603 c 0,0 2.30293,7.4845 3.4544,9.7874 1.15146,2.303 5.18159,16.1206 5.18159,20.7264 0,4.6059 1.7272,10.3632 1.7272,10.3632 0,0 5.18159,6.9088 7.48452,5.7573 2.30293,-1.1514 3.4544,-10.3632 3.4544,-12.6661 0,-2.3029 0,-6.333 -0.57574,-8.636 -0.57573,-2.3029 -3.45439,-6.9088 -3.45439,-10.9389 0,-4.0301 0,-8.636 0.57573,-12.0904 0.57573,-3.4544 -2.87866,-3.4544 -5.18159,-6.9088 -2.30293,-3.4544 -4.60586,-0.5757 -5.18159,-6.9088 -0.57574,-6.333 -0.57574,-8.0602 -0.57574,-10.3631 0,-2.303 7.48453,-1.1515 0.57574,-5.1816 -6.90879,-4.0302 -6.9088,-4.6059 -6.9088,-4.6059 z" />
    <path
       id="Idukki"
       style="fill:#ebc5dd;fill-opacity:1;stroke:#000000;stroke-width:1px;"
       d="m 841.7209,1634.6741 0.57574,8.0602 6.33305,6.9088 c 0,0 2.87867,-1.7272 1.7272,-5.1816 -1.15146,-3.4544 -2.30293,-4.6058 -4.03013,-6.9088 -1.72719,-2.3029 -4.60586,-2.8786 -4.60586,-2.8786 z" />
    <path
       id="Ernakulam"
       style="fill:#ebc5dd;fill-opacity:1;stroke:#000000;stroke-width:1px;"
       d="m 1167.5855,1863.2399 13.8176,9.2117 10.3632,1.1514 c 0,0 6.333,0.5758 8.6359,1.1515 2.303,0.5757 7.4846,2.3029 7.4846,2.3029 l 9.2117,-1.1514 9.7874,0 7.4846,-1.1515 4.6058,-6.333 8.636,-5.1816 8.0603,-4.6059 5.7573,-2.8787 5.1816,-6.9087 8.636,0.5757 6.9088,0.5757 c 0,0 2.8786,-1.1514 6.333,-1.1514 3.4544,0 6.9088,3.4543 6.9088,3.4543 l 4.0301,4.0302 5.7574,-1.7272 8.6359,-5.7573 9.2118,-2.8787 12.6661,4.6058 8.0602,3.4544 14.3933,2.303 9.2118,-3.4544 9.2117,-0.5758 12.0904,6.3331 6.333,-6.3331 17.272,-16.6962 c 0,0 7.4845,-8.0603 5.7573,-12.0904 -1.7272,-4.0301 -5.7573,-9.7874 -8.0602,-10.9389 -2.303,-1.1515 -9.2117,-6.9088 -9.2117,-6.9088 l -8.0603,-20.7264 0.5757,-13.8175 -10.9389,-5.1816 -12.6661,3.4544 c 0,0 -8.0603,4.6058 -9.2117,6.9088 -1.1515,2.3029 -6.3331,5.1816 -6.3331,5.1816 l -4.6058,4.0301 -10.939,-1.1515 -16.1205,-5.1816 -13.2418,-8.0602 -12.6661,-6.9088 0,-8.636 c 0,0 11.5146,-28.2109 12.6661,-31.0896 1.1515,-2.8786 2.8786,-12.6661 4.0301,-14.969 1.1515,-2.3029 5.1816,-10.3632 5.1816,-10.3632 l 2.8787,-12.6661 4.0301,-10.3632 4.6059,-12.6661 -2.8787,-10.9389 c 0,0 -5.1816,-3.4544 -6.3331,-6.3331 -1.1514,-2.8786 -2.3029,-18.4234 -2.3029,-18.4234 0,0 -0.5757,-8.636 0.5757,-12.0904 1.1515,-3.4544 3.4544,-9.2117 3.4544,-9.2117 l 8.636,-14.3933 7.4845,-12.6662 4.6059,-10.3631 -1.1515,-11.5147 c 0,0 -5.1816,-6.333 -6.333,-8.636 -1.1515,-2.3029 -5.1816,-14.3933 -5.1816,-14.3933 0,0 1.1515,-5.1816 -1.7272,-9.2117 -2.8787,-4.0301 -14.3933,-16.1205 -14.3933,-16.1205 0,0 -6.3331,-6.9088 -6.3331,-9.2117 0,-2.303 -2.3029,-5.1816 -0.5757,-7.4846 1.7272,-2.3029 9.7874,-10.9389 12.0904,-11.5146 2.3029,-0.5757 10.3632,-1.7272 10.3632,-1.7272 l 8.6359,-4.0301 4.6059,-8.0603 -0.5757,-13.8176 2.8786,-12.0904 c 0,0 5.1816,-12.0903 3.4544,-14.3933 -1.7272,-2.3029 -5.1816,-7.4845 -5.1816,-7.4845 l -8.0602,-1.1515 c 0,0 -4.6059,-2.8786 -4.6059,-4.6058 0,-1.7272 0,-6.9088 0,-6.9088 l -5.1816,-13.2418 -6.9088,-12.0904 -3.4544,-14.9691 -7.4845,-7.4845 -10.9389,-4.6059 -9.2117,-1.1514 c 0,0 -6.3331,-1.1515 -9.7875,3.4544 -3.4544,4.6058 -12.0904,8.0602 -13.2418,10.9389 -1.1515,2.8787 -1.7272,6.333 -7.4845,7.4845 -5.7574,1.1515 -6.9088,1.7272 -12.0904,3.4544 -5.1816,1.7272 -9.2117,1.7272 -13.2419,4.6059 -4.0301,2.8786 -8.0602,9.2117 -8.636,11.5146 -0.5757,2.3029 -1.1514,9.7875 -3.4543,12.6661 -2.303,2.8787 -5.1816,2.8787 -8.0603,5.1816 -2.8787,2.303 -5.7573,6.9088 -8.636,8.636 -2.8787,1.7272 -10.3632,3.4544 -10.3632,3.4544 0,0 -2.8786,6.3331 -7.4845,5.1816 -4.6059,-1.1515 -11.5146,-7.4845 -11.5146,-7.4845 0,0 -6.9088,-7.4845 -11.5147,-4.6059 -4.6059,2.8787 -7.4845,10.3632 -9.7875,10.3632 -2.3029,0 -4.0301,-5.1816 -9.2117,-9.2117 -5.1816,-4.0301 -7.4845,-4.6059 -11.5146,-9.2117 -4.0301,-4.6059 1.7272,-6.3331 -10.3632,-8.636 -12.0904,-2.303 -21.8778,-4.6059 -29.9381,-5.1816 -8.0603,-0.5758 -67.9364,9.2117 -71.3908,10.9389 -3.4544,1.7272 -22.45359,24.7565 -27.05945,37.9983 -4.60586,13.2419 -5.18159,35.6955 6.33306,47.2101 11.51469,11.5147 24.75649,27.0594 16.12049,37.9984 -8.636,10.9389 -31.66527,25.3322 -35.6954,40.3012 -4.03013,14.9691 5.75733,28.7867 7.48452,42.0285 1.7272,13.2418 -8.06025,48.9373 17.84768,61.0276 25.908,12.0904 127.8126,81.7541 141.0545,100.1775 13.2418,18.4234 21.3021,89.8143 21.3021,89.8143 z" />
    <path
       id="Thrissur"
       style="fill:#c1e0b2;fill-opacity:1;stroke:#000000;stroke-width:1px;"
       d="m 985.07829,1621.4322 20.15061,12.0904 10.3632,5.1816 6.3331,2.8787 8.0602,8.6359 5.7574,4.0302 7.4845,1.7272 12.0904,1.7272 c 0,0 5.7573,-0.5758 10.9389,-0.5758 5.1816,0 7.4845,-1.1514 9.7874,-1.1514 2.303,0 12.0904,7.4845 12.0904,7.4845 l 6.3331,9.7874 9.2117,6.3331 8.0602,5.1816 8.636,-1.1515 5.1816,0.5758 6.9088,10.9389 2.3029,10.3632 6.9088,9.7874 6.3331,10.9389 5.1816,16.1205 4.6058,8.0603 2.303,10.9389 0.5757,6.9088 4.6059,9.2117 5.7573,10.3632 0,6.9088 6.333,7.4845 4.0302,10.9389 -3.4544,13.2419 -6.3331,8.0602 -1.1514,13.2419 4.0301,14.3933 6.9088,6.9088 c 0,0 5.7573,2.8787 2.3029,2.8787 -3.4544,0 -17.8477,-4.6059 -23.0293,-6.3331 -5.1816,-1.7272 -17.272,-6.3331 -17.272,-6.3331 0,0 -9.7874,-3.4544 -12.0904,-4.0301 -2.3029,-0.5757 -7.4845,-3.4544 -10.3631,-2.3029 -2.8787,1.1514 -4.6059,3.4544 -9.2118,2.8786 -4.6058,-0.5757 -8.0602,-1.1514 -12.0903,-2.3029 -4.0302,-1.1515 -9.7875,-1.1515 -9.7875,-1.1515 0,0 -5.1816,2.8787 -8.0602,4.0302 -2.8787,1.1514 -4.0302,6.333 -8.636,4.6058 -4.6059,-1.7272 -9.2118,-4.0301 -9.2118,-4.0301 0,0 -6.9087,-6.3331 -4.6058,-6.3331 2.3029,0 10.3632,-2.8786 10.3632,-2.8786 l 2.3029,-5.7573 -10.9389,-1.1515 c 0,0 -4.6059,2.8787 -8.636,3.4544 -4.0301,0.5757 -6.9088,1.7272 -9.2117,0.5757 -2.303,-1.1514 -5.1816,-1.7272 -9.7875,-4.0301 -4.6058,-2.3029 -8.0602,-2.3029 -10.9389,-3.4544 -2.8787,-1.1515 -8.636,-3.4544 -11.5146,-1.7272 -2.8787,1.7272 -5.1816,2.8787 -8.636,5.1816 -3.45443,2.3029 -3.45443,6.3331 -8.06029,7.4845 -4.60586,1.1515 -8.06025,3.4544 -9.21172,5.7573 -1.15146,2.303 -2.30293,12.6662 -2.30293,12.6662 0,0 -3.45439,6.333 -6.90879,7.4845 -3.45439,1.1514 -13.24184,-1.7272 -18.42344,-1.7272 -5.18159,0 -2.30293,-3.4544 -11.51465,-4.0301 -9.21172,-0.5758 -10.93891,1.7272 -12.66611,-1.7272 -1.7272,-3.4544 -6.33306,-6.9088 -4.60586,-10.939 1.7272,-4.0301 7.48452,-5.7573 4.60586,-11.5146 -2.87866,-5.7573 -1.7272,-7.4845 -6.33306,-10.9389 -4.60586,-3.4544 -6.33306,-6.9088 -12.09038,-8.636 -5.75733,-1.7272 -9.78745,-3.4544 -9.78745,-3.4544 l 9.21172,-1.1515 4.60586,-6.333 1.15146,-5.7574 c 0,0 -5.18159,-8.6359 -6.90879,-10.9389 -1.7272,-2.3029 -2.87866,-6.333 -6.90879,-8.0602 -4.03013,-1.7272 -8.63599,0.5757 -8.63599,0.5757 0,0 -1.15146,6.3331 -7.48452,5.7573 -6.33305,-0.5757 -9.78745,-5.7573 -9.78745,-5.7573 0,0 -0.57573,-3.4544 -0.57573,-7.4845 0,-4.0301 1.7272,-6.9088 2.30293,-9.7875 0.57573,-2.8786 1.7272,-6.9088 1.7272,-10.3632 0,-3.4543 -1.7272,-9.2117 -2.87867,-11.5146 -1.15146,-2.3029 -4.60586,-10.9389 -4.60586,-10.9389 0,0 -2.30293,-9.2117 -2.30293,-11.5147 0,-2.3029 -5.18159,-10.9389 -5.18159,-10.9389 l -6.90879,-4.6058 3.4544,-9.7875 c 0,0 -1.15147,-8.636 -1.7272,-10.9389 -0.57573,-2.3029 -3.4544,-9.2117 -3.4544,-9.2117 0,0 -5.18159,-6.3331 -1.15146,-7.4846 4.03013,-1.1514 4.60586,-4.6058 4.60586,-4.6058 l -8.63599,-1.7272 0,-8.636 c 0,0 2.30293,-6.9088 3.4544,-9.2117 1.15146,-2.303 6.33305,-8.636 6.33305,-8.636 0,0 36.27115,-16.1205 40.87701,-18.4235 4.60586,-2.3029 55.27032,-2.8786 57.57325,-2.3029 2.30293,0.5757 21.87783,0 21.87783,0 z" />
    <path
       id="Palakkad"
       style="fill:#fdf9bb;fill-opacity:1;stroke:#000000;stroke-width:1px;"
       d="m 1024.2281,1396.3208 4.0301,13.8176 -2.3029,11.5146 -9.2117,12.6662 -8.0603,6.9087 -4.0301,8.0603 -4.6059,13.8176 -2.30289,4.0301 4.60589,5.7573 12.6661,5.1816 10.9389,9.7875 9.7875,7.4845 10.9389,6.9088 8.0602,5.1816 11.5147,8.636 6.9088,6.333 -1.1515,5.1816 -10.3632,6.3331 -5.1816,4.0301 -6.9088,4.6059 -10.3632,6.333 -12.0903,5.1816 -8.0603,6.3331 1.1515,9.7874 0.5757,6.9088 -1.7272,10.3632 -10.3632,4.6059 -9.21169,-1.1515 -2.30293,5.7573 2.87862,6.3331 2.303,9.2117 0,11.5146 -3.45443,5.7574 -14.96904,5.1816 -11.51465,2.3029 -4.60586,13.8176 -6.90879,4.6058 -11.51465,0 -6.90879,-5.1816 -6.33306,-7.4845 4.03013,-6.333 -2.30293,-5.1816 -8.06026,-2.303 -8.06025,1.1515 -8.06026,0.5757 -9.78745,4.6059 -8.06025,8.0603 -9.21172,6.333 -14.39331,3.4544 -10.36319,-3.4544 -6.33306,-13.2418 -7.48452,-20.7264 c 0,0 -6.90879,-10.3632 -9.78745,-12.0904 -2.87866,-1.7272 -6.90879,-8.0602 -6.90879,-8.0602 0,0 -2.87866,-9.7875 -4.60586,-12.0904 -1.7272,-2.303 -7.48452,-6.3331 -7.48452,-6.3331 l 2.87866,9.7875 -5.75733,4.0301 -7.48452,-8.636 -5.75732,-8.636 -1.7272,-8.636 1.7272,-8.0602 1.15146,-8.636 0,-8.0603 c 0,0 5.75733,0 6.90879,-2.8786 1.15147,-2.8787 0,-5.7574 0,-5.7574 l -13.81758,-2.3029 -7.48452,-2.8786 2.30293,-10.3632 0.57573,-13.2419 -5.18159,-5.7573 -5.18159,-3.4544 1.15146,8.0603 2.87866,6.333 -1.15146,4.6059 -7.48452,-6.3331 -3.4544,-8.0602 0,-7.4846 -4.60586,-11.5146 -12.66611,-23.0293 7.48452,-1.7272 c 0,0 15.54478,2.8787 18.42344,3.4544 2.87866,0.5757 14.39331,8.636 16.69624,9.2117 2.30293,0.5757 22.45357,7.4845 22.45357,7.4845 l 11.51465,0.5758 4.03013,-4.0302 c 0,0 10.36318,8.636 12.66611,9.2118 2.30293,0.5757 1.15147,-4.0302 1.15147,-4.0302 l -4.03013,-6.333 -5.75733,-4.0302 -4.60586,0 -5.75732,2.8787 -10.36319,0 -6.33305,-4.0301 -8.63599,-4.0301 -12.09038,-4.0302 -10.36319,-4.0301 -6.90879,-4.0301 2.87866,-2.303 9.21172,1.7272 4.03013,0.5758 c 0,0 16.69624,-4.0302 21.87784,-8.0603 5.18159,-4.0301 10.36318,-10.3632 14.96904,-13.8176 4.60586,-3.4544 14.39331,-10.9389 14.39331,-10.9389 0,0 14.96905,-12.6661 20.15064,-14.969 5.18159,-2.303 18.99917,-10.3632 21.87783,-11.5147 2.87867,-1.1514 15.54478,-6.333 26.4837,-4.0301 10.93892,2.3029 21.87783,5.7573 26.48369,5.1816 4.60586,-0.5757 31.66529,-2.8787 31.66529,-2.8787 l 16.69624,0.5758 z" />
    <path
       id="Malappuram"
       style="fill:ebc5dd;fill-opacity:1;stroke:#000000;stroke-width:1px;"
       d="m 890.08243,900.61514 9.78745,-5.18159 8.63599,1.15146 4.03013,0 4.03013,-6.33306 6.90879,-5.18159 6.33305,1.15147 9.21172,6.33305 12.09039,2.30293 14.39331,0.57574 12.09038,-4.03013 15.54478,-0.57573 9.78745,0 8.0603,-4.60586 5.1815,-3.4544 9.2118,-7.48452 8.636,-4.03013 6.9087,1.15147 0.5758,15.54477 -2.8787,7.48453 -5.1816,7.48452 -8.0602,6.90879 -5.1816,7.48452 -1.1515,8.06025 3.4544,0.57574 6.3331,-5.75733 8.636,0.57573 8.6359,4.60586 5.7574,6.33306 -1.1515,6.90879 2.3029,16.12051 -2.8786,7.48452 0,6.33306 4.6058,5.18159 8.636,2.87867 2.8787,2.87866 9.2117,-4.03013 3.4544,2.30293 -4.6059,8.63599 -10.9389,2.87866 -20.7264,-5.18159 -8.0602,0 -4.6059,4.60586 -5.1816,1.7272 -4.6058,17.27199 -4.0302,9.7874 -11.5146,12.0904 -1.7272,4.6059 8.0603,8.636 23.605,9.7874 25.3322,9.2117 39.7256,16.6963 8.0602,7.4845 c 0,0 0,12.0904 1.7272,14.969 1.7272,2.8787 9.7875,7.4846 9.7875,7.4846 0,0 12.0903,5.7573 14.3933,6.9088 2.3029,1.1514 6.9088,12.0903 6.9088,12.0903 l -3.4544,16.1205 -7.4846,27.6352 -1.1514,24.1808 -4.6059,7.4845 -14.969,-3.4544 -10.3632,-2.3029 -6.3331,10.3632 6.3331,9.7874 10.3632,6.3331 3.4544,12.6661 -8.636,14.3933 -1.1515,11.5146 -1.1514,14.3934 c 0,0 -2.8787,20.7263 -2.8787,23.0293 0,2.3029 -2.3029,17.2719 -2.3029,17.2719 0,0 7.4845,12.6661 8.636,14.9691 1.1514,2.3029 4.6058,13.8176 4.6058,13.8176 l 0,17.8477 -16.1205,12.0903 c 0,0 -55.846,9.2118 -61.0276,-8.0602 -5.1816,-17.272 -4.6059,-2.3029 -42.02851,-9.7875 -37.42262,-7.4845 -48.36153,-13.2418 -69.66364,-40.3012 -21.3021,-27.0595 -103.05611,-14.9691 -80.02681,-68.5122 23.0293,-53.5431 47.78579,-77.1482 22.45357,-80.0268 -25.33223,-2.8787 -104.78332,21.8778 -135.87287,8.0602 -31.08956,-13.8175 -65.05777,-31.6653 -62.75484,-49.513 2.30293,-17.8477 -16.69625,-60.4519 1.15146,-59.8761 17.84771,0.5757 58.14898,-10.3632 72.54229,-18.9992 14.39332,-8.636 97.87453,-4.0301 94.42013,-26.4837 -3.45439,-22.45357 -22.45356,-56.99752 -14.39331,-63.33058 8.06026,-6.33306 36.27115,-11.51465 54.11886,-25.33223 17.8477,-13.81758 17.8477,-32.81675 17.8477,-32.81675 z" />
    <path
       id="Kozhikode"
       style="fill:#fad0cc;fill-opacity:1;stroke:#000000;stroke-width:1px;"
       d="m 624.09402,1184.4513 17.84771,6.9087 3.45439,-4.6058 6.90879,3.4544 2.87867,-5.1816 1.72719,-5.7573 6.90879,6.333 5.75733,4.0301 2.87866,-6.333 0,-6.9088 10.36319,-5.1816 9.21172,-9.7874 4.60586,-8.0603 12.09038,-1.7272 13.24184,4.6059 c 0,0 9.78746,1.7272 13.24185,1.7272 3.4544,0 9.21172,1.7272 9.21172,1.7272 l 5.75733,2.3029 4.03012,-2.8787 -3.45439,-6.333 2.30293,-5.1816 6.90879,-5.1816 0,-12.6661 c 0,0 4.03013,-4.0302 7.48452,-4.0302 3.4544,0 8.06026,3.4544 8.06026,3.4544 l 6.33305,9.2118 1.15147,4.6058 5.75732,-1.7272 c 0,0 5.75733,0 8.63599,1.1515 2.87866,1.1514 13.81758,5.1816 13.81758,5.1816 0,0 7.48452,1.1514 10.36319,0.5757 2.87866,-0.5757 8.63598,-0.5757 11.51465,-0.5757 2.87866,0 13.81758,-2.8787 13.81758,-2.8787 l 4.60586,-5.1816 c 0,0 9.78745,2.8787 12.09038,3.4544 2.30293,0.5757 12.66611,2.3029 12.66611,2.3029 l 11.51465,-2.8786 8.06026,-2.8787 6.33305,0.5758 4.03013,5.7573 -1.15146,9.7874 -2.30293,6.9088 -1.15147,5.1816 1.7272,6.3331 -4.60586,5.1816 c 0,0 -3.4544,4.0301 -6.33306,7.4845 -2.87866,3.4544 -6.90879,8.636 -6.90879,8.636 0,0 -1.72719,6.9088 -1.15146,11.5146 0.57573,4.6059 2.87866,8.636 -0.57573,11.5147 -3.4544,2.8786 -9.78746,9.7874 -6.33306,13.2418 3.45439,3.4544 8.06025,8.0603 10.93891,12.0904 2.87867,4.0301 8.06026,17.8477 10.36319,18.9992 2.30293,1.1514 4.60586,6.333 7.48452,10.3632 2.87866,4.0301 9.21172,10.9389 9.21172,10.9389 0,0 17.27198,9.2117 20.72637,11.5146 3.4544,2.303 35.11968,22.4536 39.14981,25.3323 4.03013,2.8786 9.21172,7.4845 9.21172,7.4845 0,0 5.18159,4.0301 1.15147,5.7573 -4.03013,1.7272 -5.75733,4.6059 -3.4544,6.9088 2.30293,2.3029 10.36319,5.7573 13.81758,5.7573 3.4544,0 7.48449,4.6059 9.78749,2.8787 2.3029,-1.7272 4.0301,-4.6059 6.333,-4.0301 2.303,0.5757 5.7573,1.7272 8.0603,2.8786 2.3029,1.1515 20.7263,2.8787 20.7263,2.8787 0,0 4.6059,-2.8787 8.0603,-3.4544 3.4544,-0.5757 6.9088,1.1514 14.3933,4.6058 7.4845,3.4544 13.8176,5.1816 9.7875,6.9088 -4.0302,1.7272 -9.2118,0 -10.3632,3.4544 -1.1515,3.4544 -1.1515,6.9088 2.3029,8.0603 3.4544,1.1514 7.4845,1.1514 8.636,-2.3029 1.1515,-3.4544 4.0301,-5.7574 6.9088,-4.0302 2.8786,1.7272 4.6058,2.303 8.636,2.303 4.0301,0 10.9389,-3.4544 14.969,-3.4544 4.0301,0 3.4544,4.0301 3.4544,4.0301 l -2.3029,12.0904 -1.1515,8.636 2.8787,5.1816 12.0904,3.4543 2.3029,3.4544 -6.9088,1.7272 -14.969,-2.8786 -10.939,0 -8.6359,1.7272 -10.939,5.7573 -10.9389,-2.3029 -11.5146,1.7272 -11.5147,1.1514 -12.0904,-1.1514 -14.3933,-7.4846 -10.36316,-0.5757 -10.36318,0.5757 -9.78746,-2.3029 -10.36318,-1.1515 -4.60586,4.0302 -9.78745,2.8786 -8.63599,-1.1514 c 0,0 -9.78745,0 -12.09038,0 -2.30293,0 -12.09039,-2.303 -12.09039,-2.303 l -7.48452,-5.1815 -6.90879,-1.1515 -4.60586,0.5757 -5.18159,4.6059 -4.03013,5.1816 -12.09038,6.333 -8.63599,0.5758 -6.90879,4.0301 -2.87866,7.4845 -5.18159,4.6059 -9.21172,1.1514 -7.48452,4.0302 -4.60586,6.333 -6.90879,3.4544 -3.4544,7.4845 1.7272,5.1816 -5.75733,3.4544 -6.90879,-1.1514 -4.03012,2.3029 -6.33306,-2.3029 -8.06026,-4.6059 -4.60586,-3.4544 -6.90879,-4.6059 -2.87866,-2.3029 5.18159,-5.7573 -2.30293,-2.8787 -6.90879,1.7272 -9.21172,-8.636 -1.72719,-5.7573 6.90879,-2.3029 -8.63599,-2.8787 -10.36319,-4.6058 -5.75732,-2.8787 8.63599,12.6661 10.93891,13.8176 c 0,0 3.4544,4.6059 2.87867,9.2117 -0.57574,4.6059 -4.60586,6.9088 -4.60586,6.9088 0,0 -8.06026,0.5757 -12.66612,2.3029 -4.60586,1.7272 -14.96904,4.0302 -14.96904,4.0302 l -5.75733,-4.0302 4.60586,-7.4845 -7.48452,-18.4234 -5.75733,-35.6954 -10.93891,-29.3624 -4.60586,-18.4234 -16.69624,-33.3925 -9.78746,-17.8477 -5.18159,-10.3632 2.87866,-1.1515 10.93892,12.6661 4.03013,4.0302 0.57573,-4.6059 -5.18159,-8.636 -3.4544,-9.7874 11.51465,6.333 4.03013,6.9088 1.15147,9.2117 4.60585,0 -2.30292,-9.2117 8.63598,-5.7573 0.57573,-3.4544 -8.63598,-1.7272 -6.90879,-2.3029 -1.7272,-8.636 -3.45439,-1.7272 -6.33306,-5.1816 -3.4544,-0.5757 -1.72719,6.333 -5.75733,0 2.30293,7.4845 -4.60586,0.5758 -3.45439,-10.3632 6.33305,-4.0301 -8.06025,-3.4544 -16.69624,-25.3323 -15.54478,-16.6962 -6.90879,-14.3933 z" />
    <path
       id="Wayanad"
       style="fill:none;stroke:#000000;stroke-width:1px;"
       d="m 562.83355,914.74525 c 0,0 -2.15096,8.60383 0.71698,10.0378 2.86795,1.43397 10.0378,7.88684 10.0378,7.88684 l 5.73588,5.73588 -1.43397,4.30191 -6.45287,-5.01889 -5.73588,0 -7.88684,6.45287 5.73588,16.49066 10.75479,32.26434 2.86794,13.62274 5.73588,26.5284 7.16985,22.2266 -0.71698,13.6227 5.73588,18.6416 0.71699,8.6039 -1.43397,10.0378 1.43397,12.9057 c 0,0 7.16985,6.4529 8.60382,3.5849 1.43397,-2.8679 -1.43397,-10.0378 -1.43397,-12.9057 0,-2.868 5.0189,13.6227 5.0189,13.6227 l 7.16985,3.5849 9.32081,-12.1887 0.71699,7.1698 -8.60383,8.6039 -9.32081,0 -0.71698,5.7358 3.58493,16.4907 4.30191,3.5849 3.68201,-3.8359 c 0,0 0.12853,2.0827 -0.74227,8.1783 -0.8708,6.0956 9.57878,34.8319 9.57878,34.8319 l 0,-10.4496 13.93278,6.9664 6.09559,-5.2248 6.36677,2.4221 2.6124,-9.6309 11.72967,9.7639 3.70216,-1.7129 1.71296,-11.4534 10.83025,-5.9053 10.06892,-12.2198 2.3648,-4.8206 -15.42678,-12.5954 -5.22479,-6.9664 -0.8708,-11.3204 c 0,0 1.7416,-4.3539 1.7416,-7.8371 0,-3.4832 -0.8708,-9.5788 -0.8708,-9.5788 l -0.8708,-7.8372 11.32038,-2.6124 15.18424,0.5996 9.79774,-13.633 c 0,0 2.88358,-6.995 7.23757,-7.8658 4.35399,-0.8708 17.3065,-14.0659 17.3065,-14.0659 l 3.51182,-2.2317 13.03335,6.5571 8.81746,-5.0631 12.19119,9.5788 12.19118,0.8708 c 0,0 4.35399,-2.6124 7.83718,-5.2248 3.4832,-2.6124 10.80161,-10.6921 10.80161,-10.6921 l 18.69101,7.7799 8.82252,-3.1834 1.08977,-9.3597 c 0,0 9.87354,1.7129 14.22754,1.7129 6.82827,0 1.55631,-4.354 1.55631,-6.9664 0,-2.6124 0.54236,-10.6399 0.54236,-10.6399 l 2.17447,-3.2693 -8.18921,-5.8766 c 0,0 -5.63409,-6.1478 1.3323,-8.7602 6.96639,-2.6124 9.90723,-6.4763 9.90723,-6.4763 0,0 3.3215,-8.35594 -0.16169,-11.83913 -3.4832,-3.4832 -9.13263,-9.19515 -14.37071,-8.40818 -5.60545,0.84217 -11.37259,-2.72188 -11.37259,-2.72188 l 12.35287,-11.26311 12.05307,-5.82441 8.35596,-12.54321 c 0,0 3.67857,-3.13117 8.03257,-3.13117 4.35399,0 30.19667,0.59962 30.19667,0.59962 7.55762,-4.65084 10.08634,-12.26177 12.84807,-20.43766 1.39949,-4.1431 -5.60461,-16.60025 -8.46039,-22.2601 -2.88358,-5.71493 -5.0631,-13.25231 -5.0631,-13.25231 l -3.48319,-7.34705 c 0,0 0.4712,-8.17631 3.48319,-11.32038 11.17722,-11.66736 5.94399,-14.43337 13.06198,-15.67438 12.04871,-2.10067 30.47795,-20.02837 32.21955,-24.38236 1.7416,-4.354 1.7416,-11.32038 -0.8708,-16.54518 -2.61239,-5.22479 -7.83719,-13.06198 -15.67437,-21.76996 -7.83719,-8.70799 -13.06198,-6.09559 -18.28678,-8.70799 -5.22479,-2.61239 -13.93277,-2.61239 -21.76996,-9.57878 -7.83719,-6.96639 -5.22479,-13.06198 -17.41598,-14.80358 -12.19118,-1.7416 -15.67437,0.8708 -20.02836,-2.6124 -4.354,-3.48319 -8.70799,-5.22479 -8.70799,-5.22479 0,0 -6.09559,6.96639 -9.57879,3.4832 -3.48319,-3.4832 -0.54235,-6.69521 -9.25033,-7.56601 -8.70799,-0.8708 -7.29484,0.59962 -9.03644,-3.75438 -1.74159,-4.35399 -3.37371,-4.49211 -6.85691,-3.62131 -3.48319,0.8708 -5.33427,-0.73268 -8.81746,-0.73268 -3.4832,0 -11.34902,3.21201 -9.60742,-2.01278 1.74159,-5.22479 2.3648,-16.54517 0.57099,-19.26705 -1.97572,-2.9979 0.32844,-10.06892 -4.02555,-11.81052 -4.354,-1.7416 -53.98952,-0.8708 -58.34351,10.44959 -4.35399,11.32038 -80.11348,82.72587 -94.04625,91.43385 -13.93278,8.70799 -70.53469,94.04626 -70.53469,94.04626 z" />
    <path
       id="Kannur"
       style="fill:#fdf9bb;fill-opacity:1;stroke:#000000;stroke-width:1px;"
       d="m 727.74019,764.8953 15.77368,-14.33971 11.47177,-9.32081 6.45287,-11.47176 3.58492,-6.45287 7.16986,-4.30191 12.18875,-0.71699 3.58493,2.86794 6.45287,-5.73588 -7.16986,-11.47177 -2.86794,-7.88684 5.73588,-7.88684 9.32081,0 10.75479,8.60383 c 0,0 7.88684,3.58493 10.75478,3.58493 2.86794,0 10.03779,-7.16986 10.03779,-7.16986 l 0,-2.15096 12.18875,2.15096 7.16986,-3.58493 2.86794,-14.3397 11.47177,-6.45287 11.47176,-2.15096 9.32081,-2.15096 5.73589,-13.62272 -5.0189,-7.16985 -15.05669,-6.45287 -5.73589,-10.0378 -1.43397,-6.45287 5.0189,0 7.16985,-6.45286 -0.71698,-7.16986 -2.86794,-2.86794 -0.71699,-7.16985 -4.30191,-5.0189 -7.88684,0.71698 -8.60383,8.60383 -12.90573,0.71698 -11.47177,-2.15095 -9.32081,-9.32081 -6.45287,-9.32081 -7.88684,-11.47177 -7.16985,-4.30191 -9.32081,3.58492 c 0,0 -2.15096,2.86795 -5.73589,1.43398 -3.58492,-1.43398 -9.32081,-5.0189 -9.32081,-5.0189 l -5.73588,-8.60383 -2.15096,-14.33971 -4.30191,-12.18875 -12.18875,-4.30191 -14.33971,7.16985 -9.32081,1.43398 -5.0189,2.86794 -3.58492,-8.60383 -0.71699,-12.90574 3.58493,-21.50956 -3.58493,-10.75478 -6.45287,-7.16985 -10.03779,1.43397 -10.75479,5.73588 -7.16985,4.30191 c 0,0 -5.0189,2.15096 -9.32081,4.30192 -4.30191,2.15095 -13.62272,5.01889 -13.62272,5.01889 l -20.07559,2.86795 -12.90574,-2.86795 -11.47177,-4.30191 -7.88684,-2.86794 -11.47176,5.0189 -51.62295,27.96243 -38.00023,10.75478 c 0,0 10.0378,52.33993 13.62272,56.64185 3.58493,4.30191 38.71721,81.01935 41.58516,85.32126 2.86794,4.30191 70.98155,68.11362 76.71744,69.54759 5.73588,1.43397 92.49111,19.3586 92.49111,19.3586 z" />
    <path
       id="Kasaragod"
       style="fill:#ebc5dd;fill-opacity:1;stroke:#000000;stroke-width:1px;"
       d="m 511.2106,563.4224 15.77368,5.0189 9.32081,0.71698 7.16985,7.16986 -1.43397,7.88684 5.0189,7.88684 3.58493,12.18875 c 0,0 8.60382,2.15096 10.03779,5.0189 1.43397,2.86794 12.90574,10.75478 12.90574,10.75478 l 12.90574,5.73588 1.43397,12.90574 5.73588,11.47177 0.71699,9.32081 -2.86794,11.47176 11.47176,14.33971 6.45287,10.75478 10.0378,5.0189 5.73588,0 12.90574,15.77368 14.33971,9.32081 10.03779,0.71699 11.47177,-7.88684 11.47176,-0.71699 9.32081,1.43397 2.86795,8.60383 -5.73589,8.60382 1.43397,4.30191 8.60383,0.71699 8.60382,5.0189 9.32081,8.60382 4.30192,2.86794 10.75478,-3.58492 7.16985,-5.0189 0,8.60382 -12.18875,14.33971 -10.0378,5.0189 -7.16985,5.0189 5.0189,13.62272 -4.30191,15.05669 -7.16986,7.88684 -10.75478,6.45287 c 0,0 -2.15096,7.16986 -5.73588,7.88684 -3.58493,0.71699 -14.33971,1.43397 -14.33971,1.43397 0,0 -5.0189,-5.0189 -10.75478,-2.15095 -5.73589,2.86794 -6.45287,4.30191 -12.18875,9.32081 -5.73589,5.01889 -7.88684,7.88684 -10.0378,12.90573 -2.15096,5.0189 -7.16985,14.33971 -7.16985,14.33971 0,0 -3.58493,2.15096 -10.75479,0 -7.16985,-2.15095 -5.73588,0 -9.32081,2.86794 -3.58492,2.86795 -2.15095,5.73589 -10.75478,7.16986 -8.60382,1.43397 -8.60382,2.15095 -12.18875,4.30191 -3.58493,2.15096 -10.0378,4.30191 -10.0378,4.30191 l -5.73588,7.16986 0,6.45287 11.47177,5.73588 3.58493,7.88684 c 0,0 1.43397,6.45287 -4.30192,4.30191 -5.73588,-2.15095 -10.75478,-5.0189 -10.75478,-5.0189 l -5.0189,2.15096 -1.43397,7.88684 -2.86794,4.30191 c 0,0 -0.71698,4.30191 -7.16985,5.73589 -6.45287,1.43397 -10.75478,-4.30192 -10.75478,-4.30192 l 4.30191,-16.49066 5.0189,-7.16986 -4.30192,-0.71698 -5.01889,7.88684 -7.16986,-1.43397 c 0,0 -7.16985,-12.18875 -7.16985,-15.0567 0,-2.86794 -7.88684,-17.92463 -7.88684,-17.92463 l -6.45287,-25.09449 0.71698,-12.18875 -9.32081,-12.18876 -7.88684,-9.32081 c 0,0 -5.01889,-8.60382 -1.43397,-9.32081 3.58493,-0.71698 7.16986,-2.15095 7.16986,-2.15095 l -8.60383,-10.0378 -18.64162,-32.26434 -13.62272,-15.77368 -14.33971,0 -16.49066,-20.79258 -10.75478,-21.50956 0.71698,-7.16985 4.30191,1.43397 3.58493,-6.45287 9.32081,6.45287 4.30191,-5.0189 -7.16985,-5.0189 -6.45287,0 -5.73588,-3.58493 -2.15096,8.60383 -2.15096,-7.16986 -3.58492,-12.90573 -10.0378,-27.96243 -9.32081,-20.79258 38.00023,-50.90596 z" />
  </g>
</svg>